<svg xmlns="http://www.w3.org/2000/svg" viewBox="0 0 546.11999 546.12006" height="546.12" width="546.12"><path d="M236.945 542.39c-11.145-5.683-14.953-12.65-18.336-33.547-1.688-10.426-3.807-19.624-4.709-20.44-.902-.817-6.92-3.177-13.373-5.244-6.454-2.068-17.226-6.506-23.94-9.863-6.713-3.356-13.266-6.103-14.562-6.103-1.295 0-7.803 4.173-14.46 9.273-16.44 12.594-19.92 14.194-30.877 14.194-10.479 0-14.784-2.604-33.2-20.079C62.6 450.762 55.46 440.303 55.46 429.528c0-11.055 1.584-14.513 14.194-30.973 5.1-6.657 9.273-13.165 9.273-14.46 0-1.296-2.747-7.85-6.103-14.562-3.357-6.714-7.795-17.486-9.863-23.94-2.067-6.453-4.427-12.471-5.243-13.373-.817-.902-10.015-3.021-20.44-4.709C4.502 322.206 0 315.628 0 273.06s4.503-49.146 37.277-54.451c10.426-1.688 19.624-3.807 20.44-4.709.817-.902 3.177-6.92 5.244-13.373 2.068-6.454 6.506-17.226 9.863-23.94 3.356-6.713 6.103-13.266 6.103-14.561 0-1.296-4.173-7.804-9.273-14.461-12.594-16.44-14.194-19.92-14.194-30.877 0-10.479 2.604-14.784 20.079-33.2C95.358 62.6 105.817 55.46 116.592 55.46c11.055 0 14.513 1.584 30.973 14.194 6.657 5.1 13.165 9.273 14.46 9.273 1.296 0 7.85-2.747 14.563-6.103 6.713-3.357 17.485-7.795 23.939-9.863 6.453-2.067 12.471-4.427 13.373-5.243.902-.817 3.021-10.015 4.709-20.44C223.914 4.502 230.492 0 273.06 0s49.146 4.503 54.451 37.277c1.688 10.426 3.807 19.624 4.709 20.44.902.817 6.92 3.177 13.373 5.244 6.454 2.068 17.226 6.506 23.94 9.863 6.713 3.356 13.266 6.103 14.562 6.103 1.295 0 7.803-4.173 14.46-9.273 16.46-12.61 19.918-14.194 30.973-14.194 10.775 0 21.234 7.14 41.053 28.027 17.475 18.417 20.079 22.722 20.079 33.201 0 10.956-1.6 14.438-14.194 30.877-5.1 6.657-9.273 13.165-9.273 14.46 0 1.296 2.747 7.85 6.103 14.563 3.357 6.713 7.795 17.485 9.863 23.939 2.067 6.453 4.427 12.471 5.244 13.373.816.902 10.014 3.021 20.44 4.709 32.774 5.305 37.277 11.883 37.277 54.451s-4.503 49.146-37.277 54.451c-10.426 1.688-19.624 3.807-20.44 4.709-.817.902-3.177 6.92-5.244 13.373-2.068 6.454-6.506 17.226-9.863 23.94-3.356 6.713-6.103 13.266-6.103 14.562 0 1.295 4.173 7.803 9.273 14.46 12.594 16.44 14.194 19.92 14.194 30.877 0 10.479-2.604 14.784-20.079 33.2-19.819 20.887-30.278 28.028-41.053 28.028-11.055 0-14.513-1.584-30.973-14.194-6.657-5.1-13.165-9.273-14.46-9.273-1.296 0-7.85 2.747-14.562 6.103-6.714 3.357-17.486 7.795-23.94 9.863-6.453 2.067-12.471 4.427-13.373 5.243-.902.817-3.021 10.015-4.709 20.44-5.305 32.775-11.883 37.278-54.451 37.278-23.207 0-30.22-.724-36.115-3.73zm62.647-23.779c.651-1.053 2.227-9.413 3.501-18.578 3.65-26.234 8.83-32.636 32.9-40.645 5.867-1.952 17.36-6.754 25.54-10.672 22.019-10.545 28.784-9.904 48.659 4.61 8.837 6.454 17.336 11.734 18.887 11.734 3.745 0 35.981-32.149 35.981-35.884 0-1.605-5.28-10.147-11.733-18.984-14.515-19.875-15.156-26.64-4.611-48.659 3.918-8.18 8.72-19.673 10.672-25.54 8.027-24.124 14.39-29.248 40.897-32.935 9.304-1.294 17.696-3.133 18.65-4.086.953-.953 1.461-13.174 1.13-27.156l-.605-25.423-19.4-3.27c-10.67-1.798-21.938-4.932-25.04-6.964-5.546-3.634-12.167-14.479-15.244-24.966-.86-2.933-5.303-13.734-9.873-24.003-11.582-26.02-11.236-31.188 3.424-51.262 6.453-8.837 11.733-17.336 11.733-18.887 0-3.745-32.149-35.981-35.884-35.981-1.604 0-10.147 5.28-18.984 11.733-19.875 14.515-26.64 15.156-48.659 4.611-8.18-3.917-19.673-8.72-25.54-10.672-24.07-8.009-29.25-14.41-32.9-40.645-1.274-9.165-2.85-17.525-3.501-18.578-1.545-2.5-51.518-2.5-53.064 0-.65 1.053-2.227 9.413-3.501 18.578-3.65 26.235-8.83 32.636-32.9 40.645-5.867 1.952-17.36 6.755-25.54 10.672-22.019 10.545-28.784 9.904-48.659-4.61-8.837-6.454-17.336-11.734-18.887-11.734-3.745 0-35.981 32.149-35.981 35.884 0 1.605 5.28 10.147 11.733 18.984 14.516 19.877 15.157 26.642 4.607 48.659-3.92 8.18-8.37 18.713-9.888 23.406-4.595 14.194-10.466 24.27-16.412 28.166-3.101 2.032-14.37 5.166-25.04 6.964l-19.4 3.27-.604 25.423c-.332 13.982.176 26.203 1.13 27.156.953.953 9.345 2.792 18.649 4.086 26.507 3.687 32.87 8.81 40.897 32.935 1.952 5.867 6.755 17.36 10.672 25.54 10.545 22.019 9.904 28.784-4.61 48.659-6.454 8.837-11.734 17.336-11.734 18.887 0 3.745 32.149 35.981 35.884 35.981 1.605 0 10.147-5.28 18.984-11.733 19.875-14.515 26.64-15.156 48.659-4.611 8.18 3.918 19.673 8.72 25.54 10.672 24.07 8.01 29.25 14.41 32.9 40.645 1.274 9.165 2.85 17.525 3.501 18.578.651 1.054 12.59 1.916 26.532 1.916s25.88-.862 26.532-1.916zM258.127 390.13c-35.257-3.735-69.087-26.257-87.727-58.403-10.163-17.528-14.889-35.888-14.95-58.083-.095-33.815 10.683-60.057 34.41-83.784 23.54-23.54 49.869-34.438 83.2-34.438s59.66 10.898 83.2 34.438c23.54 23.54 34.438 49.869 34.438 83.2s-10.898 59.66-34.438 83.2c-26.758 26.758-59.287 37.985-98.133 33.87zm38.128-27.694c34.113-7.688 63.24-40.198 68.144-76.059 10.022-73.277-64.338-127.934-131.374-96.564-56.763 26.563-69.854 103.77-25.17 148.453 23.51 23.51 54.15 31.888 88.4 24.17z" fill="#050505"/></svg>